<?xml version="1.0" standalone="no"?>
<!DOCTYPE svg PUBLIC "-//W3C//DTD SVG 20010904//EN"
 "http://www.w3.org/TR/2001/REC-SVG-20010904/DTD/svg10.dtd">
<svg version="1.0" xmlns="http://www.w3.org/2000/svg"
 width="500.000000pt" height="500.000000pt" viewBox="0 0 500.000000 500.000000"
 preserveAspectRatio="xMidYMid meet">
<metadata>
Created by potrace 1.11, written by Peter Selinger 2001-2013
</metadata>
<g transform="translate(0.000000,500.000000) scale(0.100000,-0.100000)"
fill="#000000" stroke="none">
<path d="M1072 3838 l3 -233 70 0 70 0 0 230 0 230 -73 3 -72 3 2 -233z"/>
<path d="M1710 3355 l0 -105 -307 0 c-170 0 -314 -4 -321 -8 -10 -7 -12 -155
-10 -758 l3 -749 24 -63 c17 -47 34 -72 67 -100 25 -20 54 -40 66 -45 18 -6
20 -4 14 15 -20 65 -25 233 -25 860 l-1 688 318 2 317 3 0 180 0 180 -72 3
-73 3 0 -106z"/>
<path d="M3232 3320 c-135 -21 -260 -102 -309 -201 -77 -155 -41 -339 85 -435
25 -19 46 -33 47 -32 2 2 -3 32 -9 68 -32 175 41 330 188 399 88 41 157 55
281 54 118 0 192 -16 278 -60 27 -13 51 -22 53 -20 3 3 -17 29 -44 58 -59 64
-152 122 -242 150 -73 22 -244 33 -328 19z"/>
<path d="M4193 3228 c59 -92 107 -210 131 -325 7 -34 11 -65 8 -68 -3 -3 -66
-5 -140 -5 l-134 0 7 -22 c3 -13 12 -48 18 -78 l12 -55 193 -3 c219 -3 212 -6
192 80 -46 198 -168 413 -284 501 l-37 29 34 -54z"/>
<path d="M434 3236 c-3 -7 -4 -42 -2 -77 l3 -64 108 -3 107 -3 0 75 c0 58 -3
75 -16 80 -9 3 -56 6 -105 6 -66 0 -91 -4 -95 -14z"/>
<path d="M2780 2405 c50 -55 97 -96 144 -128 78 -52 298 -125 577 -192 163
-39 316 -84 378 -111 64 -29 64 -29 52 -6 -30 57 -145 139 -247 178 -35 13
-187 55 -337 93 -310 79 -401 108 -507 159 -101 50 -100 50 -60 7z"/>
<path d="M4282 2108 c54 -83 84 -239 75 -382 -22 -325 -278 -566 -654 -616
-186 -25 -492 4 -636 61 -72 29 -185 86 -215 110 -48 37 -46 18 3 -32 133
-135 302 -225 520 -275 66 -16 120 -19 310 -18 l230 0 95 33 c154 53 225 95
317 188 104 104 154 201 178 342 26 150 -1 318 -69 434 -31 53 -98 130 -139
159 l-32 23 17 -27z"/>
<path d="M2925 1728 c16 -55 145 -208 175 -208 4 0 -5 26 -20 58 -15 31 -32
83 -39 115 l-12 57 -55 0 c-53 0 -55 -1 -49 -22z"/>
<path d="M1717 1343 c-4 -3 -7 -53 -7 -110 l0 -103 -178 0 c-271 0 -408 20
-534 80 -43 20 -78 32 -78 27 0 -4 21 -29 48 -55 153 -154 318 -202 692 -202
l200 0 0 179 c0 177 0 179 -22 185 -31 8 -113 8 -121 -1z"/>
</g>
</svg>
